<?xml version="1.0" encoding="UTF-8"?>
<svg width="77px" height="77px" viewBox="0 0 77 77" version="1.1" xmlns="http://www.w3.org/2000/svg" xmlns:xlink="http://www.w3.org/1999/xlink">
    <!-- Generator: Sketch 40.1 (33804) - http://www.bohemiancoding.com/sketch -->
    <title>separator-se</title>
    <desc>Created with Sketch.</desc>
    <defs></defs>
    <g id="Page-1" stroke="none" stroke-width="1" fill="none" fill-rule="evenodd">
        <g id="01-Inicio" transform="translate(-600.000000, -770.000000)">
            <g id="separator-se" transform="translate(600.000000, 770.000000)">
                <circle id="Oval-2" fill="#FFFFFF" cx="38.5" cy="38.5" r="38.5"></circle>
                <g id="Group-6" transform="translate(8.000000, 8.000000)">
                    <path d="M21.8787419,44.0555556 C21.7496613,44.17925 21.830871,44.4037639 21.8650645,44.5621944 C21.9881613,45.1391528 22.0462903,45.6669722 22.0539839,46.123625 C22.1027097,48.7898333 20.3528548,49.4125417 18.4551129,48.2272778 C15.3973548,46.3227222 13.0892903,43.5861944 11.5505806,40.4218194 C8.23979032,40.4667222 5.06748387,40.3684444 2.07127419,40.1337639 C4.08698387,46.2481667 8.01582258,51.537375 13.4192581,55.3125972 C18.8338065,59.09375 25.1989355,61.0093194 31.7068226,60.824625 L22.4643065,44.2410972 C22.4643065,44.2410972 22.1864839,43.7590278 21.8787419,44.0555556" id="Fill-1" fill="#006CAA"></path>
                    <path d="M2.07212903,40.1337639 L2.07212903,40.1337639 C2.07212903,40.1337639 6.13945161,40.5734722 11.5505806,40.4218194 C10.631629,38.5350556 9.98622581,36.4966389 9.61864516,34.3938333 C7.84143548,24.2407222 13.6363871,14.4925833 22.9472903,10.8435972 L18.6987419,3.225375 C6.23006452,8.65013889 -1.42416129,21.9896528 1.00272581,35.8730833 C1.25746774,37.3303056 1.6165,38.7519444 2.07212903,40.1337639" id="Fill-2" fill="#5C91C0"></path>
                    <path d="M52.5093226,33.4085139 C51.5288226,41.0767222 46.3758548,47.7460556 39.0345,50.622375 L43.2856129,58.2431389 C54.4412581,53.3894028 61.7415806,42.1992917 61.4158871,29.9526944 C58.6513387,31.1820139 55.671371,32.3393194 52.5093226,33.4085139" id="Fill-3" fill="#6AAD40"></path>
                    <path d="M40.1039032,17.4112639 C40.2329839,17.2884167 40.1517742,17.0639028 40.1175806,16.904625 C39.9944839,16.3285139 39.9363548,15.8015417 39.9278065,15.3431944 C39.8799355,12.6786806 41.6306452,12.055125 43.5275323,13.2386944 C48.4095161,16.2802222 51.3800806,21.4423472 52.364,27.0746806 C52.740129,29.2215417 52.7734677,31.3497639 52.5093226,33.4085139 C52.5093226,33.4085139 57.1852903,31.8555556 61.4158871,29.9526944 C61.3774194,28.5107222 61.2355161,27.0551944 60.9799194,25.5937361 C59.5950806,17.6840694 55.1849677,10.78175 48.5633871,6.15591667 C43.1488387,2.37391667 36.7854194,0.4575 30.2749677,0.643888889 L39.5183387,17.2274167 C39.5183387,17.2274167 39.7970161,17.7094861 40.1039032,17.4112639" id="Fill-4" fill="#9CC57B"></path>
                </g>
            </g>
        </g>
    </g>
</svg>